<?xml version="1.0" standalone="no"?>
<!DOCTYPE svg PUBLIC "-//W3C//DTD SVG 20010904//EN"
 "http://www.w3.org/TR/2001/REC-SVG-20010904/DTD/svg10.dtd">
<svg version="1.0" xmlns="http://www.w3.org/2000/svg"
 width="648.000000pt" height="648.000000pt" viewBox="0 0 648.000000 648.000000"
 preserveAspectRatio="xMidYMid meet">
<metadata>
Created by potrace 1.14, written by Peter Selinger 2001-2017
</metadata>
<g transform="translate(0.000000,648.000000) scale(0.100000,-0.100000)"
fill="#000000" stroke="none">
<path d="M1149 6476 c-2 -2 -21 -7 -43 -10 -21 -4 -41 -8 -45 -10 -7 -4 -116
-19 -136 -19 -25 1 -108 14 -115 18 -11 7 -70 -15 -70 -26 0 -5 -6 -9 -13 -9
-22 0 -68 -56 -73 -90 -7 -39 -32 -112 -42 -120 -4 -3 -14 -17 -22 -31 -8 -15
-39 -62 -67 -105 -29 -44 -53 -90 -53 -104 0 -14 13 -38 28 -55 24 -26 235
-305 304 -402 13 -18 31 -43 40 -55 84 -111 148 -201 148 -208 0 -4 3 -10 8
-12 12 -5 72 -86 72 -97 0 -5 4 -11 8 -13 5 -1 53 -66 109 -143 271 -379 247
-350 288 -352 22 -1 53 -13 73 -27 l36 -25 32 19 c27 17 33 18 43 6 10 -12
104 -164 220 -358 76 -127 118 -195 206 -338 56 -91 108 -176 115 -190 14 -28
30 -41 41 -34 5 2 -30 64 -76 137 -46 72 -102 164 -126 202 -23 39 -65 106
-93 150 -28 44 -57 89 -64 100 -79 126 -183 287 -203 317 -11 15 -19 29 -19
31 0 2 13 13 29 25 l30 22 33 -53 c18 -28 35 -56 37 -62 2 -5 21 -36 43 -67
21 -31 38 -59 38 -62 0 -3 12 -24 28 -48 15 -24 32 -50 37 -59 6 -9 17 -27 26
-40 43 -64 149 -241 149 -250 0 -5 5 -9 10 -9 6 0 10 -5 10 -10 0 -6 5 -16 10
-23 14 -16 190 -295 190 -301 0 -2 -16 -3 -35 -2 -19 1 -35 -2 -35 -7 0 -8 53
-95 119 -197 20 -30 58 -92 86 -137 27 -45 75 -121 105 -170 30 -48 60 -96 65
-105 37 -64 99 -164 104 -168 3 -3 12 -16 20 -30 32 -55 206 -335 212 -340 3
-3 8 -10 10 -15 2 -6 50 -84 107 -175 57 -91 109 -174 115 -184 7 -11 51 -82
100 -158 48 -77 87 -144 87 -149 0 -5 4 -9 8 -9 4 0 13 -12 19 -28 7 -15 42
-72 78 -127 36 -55 70 -109 76 -120 12 -25 175 -286 187 -300 5 -6 11 -15 13
-21 2 -5 28 -48 57 -94 29 -47 81 -129 115 -184 34 -54 67 -99 72 -99 6 0 20
17 32 38 l21 38 -51 82 c-29 45 -57 90 -64 101 -32 52 -183 289 -232 364 -31
47 -55 88 -54 91 1 4 -7 15 -17 24 -11 10 -20 22 -20 28 0 5 -10 23 -23 40
-12 17 -26 40 -32 49 -32 56 -141 224 -147 226 -5 2 -8 8 -8 13 0 5 -24 46
-54 92 -49 75 -308 484 -404 637 -76 122 -153 245 -165 265 -7 10 -16 25 -22
31 -10 12 -344 541 -402 637 -17 28 -27 54 -22 57 5 4 -11 37 -36 75 -39 62
-78 124 -118 190 -7 11 -14 22 -17 25 -3 3 -32 48 -65 100 -85 137 -148 234
-156 240 -3 3 -12 16 -19 30 -7 14 -55 89 -107 167 -51 78 -95 147 -98 155 -3
8 18 28 53 51 32 20 61 37 65 37 3 0 18 11 33 25 15 14 30 25 34 25 7 0 70
-85 70 -95 0 -3 6 -12 13 -20 11 -11 95 -139 122 -185 23 -39 70 -105 78 -108
4 -2 7 -8 7 -13 0 -6 96 -152 213 -325 116 -173 217 -325 224 -336 6 -12 23
-28 37 -35 14 -8 54 -55 88 -106 34 -51 65 -93 70 -95 4 -2 8 -8 8 -12 0 -8
166 -260 190 -287 5 -7 10 -16 10 -21 0 -5 9 -17 20 -27 11 -10 20 -24 20 -32
0 -7 5 -13 10 -13 6 0 10 -6 10 -14 0 -8 3 -16 8 -18 7 -3 31 -37 247 -358
131 -194 257 -380 422 -623 40 -59 73 -112 73 -116 0 -5 4 -11 8 -13 8 -3 102
-136 102 -144 0 -3 18 -29 40 -59 22 -30 40 -58 40 -64 0 -5 4 -11 8 -13 5 -2
64 -85 131 -186 68 -101 128 -181 133 -180 6 2 20 19 31 39 l20 34 -66 95
c-78 113 -191 277 -229 334 -15 23 -32 46 -38 53 -5 7 -10 16 -10 22 0 5 -4
11 -8 13 -4 2 -46 59 -93 128 -126 185 -197 287 -248 360 -25 36 -50 73 -56
82 -5 9 -48 72 -94 140 -47 68 -99 143 -115 168 -17 25 -33 47 -36 50 -3 3
-39 55 -80 115 -40 61 -78 112 -82 113 -4 2 -8 8 -8 12 0 5 -47 77 -105 160
-58 83 -105 155 -105 160 0 4 -4 10 -8 12 -19 7 -202 288 -189 288 12 0 82
-91 122 -158 6 -9 13 -19 16 -22 3 -3 25 -34 49 -70 24 -36 47 -66 52 -68 4
-2 8 -8 8 -13 0 -4 37 -61 83 -126 45 -65 100 -145 122 -178 22 -33 46 -66 53
-73 6 -7 12 -17 12 -21 0 -4 8 -16 18 -27 15 -17 122 -171 147 -212 6 -9 15
-21 20 -28 6 -6 31 -42 55 -80 25 -38 47 -71 51 -74 3 -3 24 -32 46 -65 103
-154 199 -292 215 -309 10 -11 18 -25 18 -32 0 -7 4 -14 8 -16 5 -1 51 -66
103 -143 52 -77 97 -142 100 -145 6 -6 169 -241 184 -268 6 -9 13 -19 16 -22
3 -3 24 -33 48 -67 23 -35 43 -63 44 -63 1 0 28 37 60 82 32 46 143 205 247
353 104 149 193 275 199 282 6 7 11 15 11 17 0 3 26 41 58 85 31 44 72 101 90
127 l32 48 0 -1197 0 -1197 465 0 465 0 0 1840 c0 1012 -3 1840 -7 1841 -68 6
-956 -1 -963 -7 -4 -5 -132 -175 -284 -379 -152 -203 -285 -381 -296 -395 -11
-14 -31 -41 -45 -60 -14 -19 -34 -46 -45 -60 -10 -14 -111 -149 -225 -300
-113 -151 -209 -276 -213 -277 -4 -2 -36 43 -72 100 -110 174 -159 252 -167
262 -5 6 -24 35 -43 65 -35 56 -132 208 -247 385 -35 55 -146 226 -245 380
-99 154 -184 282 -188 285 -4 3 -42 4 -83 4 -41 -1 -78 1 -83 4 -6 4 -36 48
-69 97 -33 50 -62 92 -65 95 -3 3 -25 34 -49 70 -24 36 -64 94 -89 130 -25 36
-75 108 -111 160 -36 52 -108 156 -161 230 -103 147 -162 231 -198 282 -32 48
-62 81 -62 70 0 -5 7 -15 16 -23 8 -7 22 -26 31 -43 9 -17 19 -33 23 -36 12
-9 230 -339 230 -349 0 -5 4 -11 8 -13 5 -1 45 -57 90 -123 45 -66 95 -138
110 -160 16 -22 73 -105 127 -185 54 -80 107 -156 117 -169 26 -34 23 -40 -21
-39 -37 0 -42 4 -87 72 -27 39 -51 73 -54 76 -3 3 -26 37 -50 75 -25 39 -48
72 -52 73 -5 2 -8 10 -8 18 0 8 -4 14 -9 14 -5 0 -13 9 -16 20 -3 11 -12 26
-19 32 -6 7 -50 69 -96 138 -46 69 -86 127 -90 130 -3 3 -17 23 -30 45 -13 22
-27 42 -30 45 -4 3 -29 39 -57 80 -27 41 -84 125 -126 185 -42 61 -77 115 -77
121 0 8 47 37 57 35 1 0 16 13 33 29 29 28 31 33 26 77 -3 30 -1 59 7 77 12
28 9 36 -80 184 -51 85 -93 155 -93 157 0 2 -22 40 -50 84 -27 44 -50 85 -50
91 0 5 -4 10 -10 10 -5 0 -10 4 -10 9 0 9 -148 266 -176 306 -20 28 -17 42 4
19 25 -28 64 -36 104 -22 77 27 82 144 6 181 -74 36 -164 -39 -136 -113 6 -17
6 -22 -1 -15 -15 16 -181 303 -181 315 0 5 -3 10 -7 10 -5 0 -13 10 -19 23
-59 122 -110 206 -128 211 -24 7 -81 8 -87 2z m164 -393 c9 -5 187 -272 187
-280 0 -2 5 -9 11 -16 10 -11 164 -246 249 -378 19 -30 38 -55 42 -57 4 -2 8
-8 8 -12 0 -5 18 -38 41 -72 45 -70 47 -108 8 -140 -46 -38 -109 -9 -149 68
-8 16 -19 34 -23 39 -5 6 -73 109 -152 230 -79 121 -148 225 -152 230 -5 6
-12 17 -16 25 -3 8 -45 73 -92 144 -53 81 -85 139 -85 155 0 60 68 95 123 64z
m-401 -254 c13 -6 85 -105 173 -240 83 -126 208 -317 278 -425 70 -107 130
-207 133 -223 7 -34 -28 -79 -66 -85 -24 -3 -80 21 -80 36 0 3 -20 36 -45 72
-25 37 -45 69 -45 72 0 2 -5 10 -11 17 -6 7 -53 77 -105 157 -52 80 -99 152
-104 160 -177 262 -240 368 -238 395 4 60 55 90 110 64z"/>
<path d="M1832 5753 c-12 -2 -34 -20 -48 -39 -44 -58 -19 -134 50 -153 61 -16
113 20 121 84 6 47 -14 81 -60 101 -19 8 -36 13 -37 13 -2 -1 -13 -4 -26 -6z"/>
<path d="M2017 5480 c-29 -9 -66 -44 -68 -64 0 -6 -2 -18 -4 -27 -4 -24 23
-75 48 -87 46 -23 88 -18 120 13 73 74 3 194 -96 165z"/>
<path d="M718 5454 c-61 -33 -59 -137 3 -169 55 -29 110 -12 138 42 42 82 -58
172 -141 127z"/>
<path d="M908 5147 c-35 -28 -47 -63 -36 -104 19 -72 103 -96 158 -45 92 83
-27 228 -122 149z"/>
<path d="M1104 4885 c-43 -18 -66 -70 -53 -117 7 -28 19 -41 49 -56 47 -23 81
-19 114 15 32 32 36 69 14 115 -23 49 -71 65 -124 43z"/>
<path d="M1876 4728 c4 -7 15 -24 25 -38 9 -14 37 -56 62 -95 24 -38 75 -117
113 -175 38 -58 71 -109 74 -115 7 -15 52 -83 152 -233 48 -73 88 -136 88
-141 0 -5 3 -11 8 -13 4 -1 36 -48 72 -103 36 -55 69 -103 74 -106 14 -11 -4
-30 -27 -28 -48 3 -51 11 78 -186 50 -77 143 -219 205 -315 62 -96 145 -224
185 -285 40 -60 111 -171 158 -245 48 -74 91 -140 97 -147 5 -7 10 -17 10 -23
0 -5 5 -10 10 -10 6 0 10 -7 10 -15 0 -8 3 -15 8 -15 4 0 12 -9 17 -20 6 -10
48 -78 95 -149 47 -72 96 -149 110 -171 14 -22 120 -185 235 -362 116 -177
212 -326 214 -332 2 -5 8 -15 13 -21 11 -12 125 -187 170 -260 l31 -50 28 35
c33 39 35 48 14 75 -35 46 -195 296 -195 304 0 5 -4 11 -8 13 -10 4 -172 248
-172 260 0 4 -4 8 -10 8 -5 0 -10 6 -10 13 0 7 -9 23 -20 35 -11 12 -20 25
-20 31 0 5 -3 11 -7 13 -9 3 -63 84 -63 93 0 3 -5 11 -11 18 -6 7 -78 113
-160 237 -81 124 -153 232 -159 240 -5 8 -41 62 -78 120 -38 58 -154 233 -257
390 -104 157 -231 350 -283 430 -52 80 -106 163 -121 185 -14 22 -29 42 -33
43 -5 2 -8 9 -8 17 0 7 -7 18 -15 25 -15 13 -11 35 6 25 7 -5 73 -100 114
-166 11 -19 87 -134 104 -158 6 -9 33 -50 61 -91 27 -41 54 -82 60 -90 5 -8
78 -118 162 -245 147 -222 797 -1205 818 -1235 6 -8 61 -91 122 -185 62 -93
116 -171 120 -173 4 -2 8 -7 8 -12 0 -7 72 -122 87 -140 4 -5 36 31 53 61 6
11 -30 72 -145 245 -187 278 -176 261 -197 289 -10 13 -18 28 -18 33 0 6 -4
12 -8 14 -4 2 -99 139 -211 306 -197 295 -272 406 -288 427 -5 6 -14 22 -22
38 -8 15 -18 27 -23 27 -4 0 -8 4 -8 9 0 11 -171 265 -182 269 -4 2 -8 7 -8
11 0 5 -86 136 -191 292 -104 156 -218 326 -252 376 -54 81 -66 93 -92 94 -16
1 -36 2 -44 3 -15 1 -54 58 -278 396 -156 236 -268 402 -282 417 -6 7 -11 17
-11 23 0 5 -3 10 -8 10 -4 0 -16 17 -27 37 -11 20 -25 41 -30 47 -19 20 -75
107 -75 117 0 5 -5 9 -11 9 -5 0 -7 -6 -3 -12z"/>
<path d="M1812 4675 c13 -22 31 -52 41 -65 10 -14 67 -104 127 -200 60 -96
113 -179 118 -185 4 -5 11 -17 15 -25 4 -8 34 -55 67 -105 33 -49 63 -97 67
-105 4 -8 11 -19 15 -25 17 -19 178 -274 178 -280 0 -4 -16 -5 -35 -3 -40 5
-44 -6 -15 -42 11 -14 20 -31 20 -37 0 -7 3 -13 8 -13 4 0 12 -9 17 -20 13
-26 106 -174 234 -370 20 -30 41 -64 48 -75 11 -18 69 -111 294 -465 43 -69
114 -179 157 -245 42 -66 82 -127 87 -136 6 -9 30 -49 55 -88 25 -40 50 -80
55 -89 6 -9 36 -57 68 -105 31 -48 57 -92 57 -97 0 -6 3 -10 8 -10 4 0 16 -17
27 -37 11 -21 23 -40 26 -43 4 -3 24 -33 45 -67 75 -120 226 -359 330 -521 57
-89 104 -167 104 -172 0 -6 4 -10 9 -10 5 0 16 -16 25 -35 9 -19 20 -35 24
-35 10 0 52 64 52 78 0 11 -91 157 -161 259 -16 23 -29 44 -29 48 0 3 -5 11
-10 18 -19 22 -80 119 -80 127 0 5 -3 10 -7 12 -11 4 -63 86 -63 98 0 5 -4 10
-8 10 -4 0 -16 15 -27 33 -10 17 -57 91 -103 162 -47 72 -99 153 -117 180 -18
28 -71 110 -119 183 -47 73 -86 137 -86 143 0 5 -4 9 -10 9 -5 0 -10 4 -10 8
0 6 -131 213 -157 248 -19 25 -34 50 -39 67 -4 9 -9 17 -13 17 -3 0 -17 20
-30 45 -13 25 -28 45 -32 45 -5 0 -9 4 -9 10 0 5 -29 54 -64 107 -35 54 -111
172 -170 263 -58 91 -110 170 -116 177 -5 7 -10 14 -10 16 0 3 -35 58 -78 123
-134 206 -142 218 -130 225 6 4 -14 42 -51 97 -34 50 -61 95 -61 100 0 5 -9
17 -20 27 -11 10 -20 22 -20 26 0 4 -41 70 -92 146 -267 402 -363 549 -367
558 -2 5 -8 14 -13 20 -4 5 -17 21 -28 35 -17 21 -17 19 2 -15z"/>
<path d="M2118 3682 c-10 -2 -18 -6 -18 -9 0 -3 46 -78 103 -167 56 -88 107
-169 112 -178 17 -30 136 -218 204 -323 36 -55 66 -102 66 -105 1 -5 58 -97
72 -116 9 -11 13 -18 75 -119 23 -38 45 -72 48 -75 11 -9 70 -110 70 -119 0
-5 4 -11 8 -13 6 -2 123 -181 167 -256 6 -9 38 -62 73 -117 35 -55 101 -160
148 -234 46 -73 84 -137 84 -141 0 -5 4 -10 8 -12 6 -2 192 -293 237 -370 6
-9 78 -124 161 -255 83 -131 157 -249 165 -263 29 -51 39 -56 60 -29 24 32 34
60 22 68 -10 6 -48 68 -80 129 -9 17 -20 32 -25 32 -4 0 -8 5 -8 12 0 6 -11
26 -26 45 -14 18 -22 33 -19 33 4 0 -8 18 -25 40 -17 22 -29 40 -25 40 3 0 -5
15 -18 33 -13 17 -43 64 -66 102 -23 39 -47 79 -54 89 -156 248 -217 349 -217
357 0 5 -4 9 -8 9 -5 0 -14 12 -21 28 -7 15 -33 57 -57 94 -24 37 -44 69 -44
72 0 2 -42 71 -93 152 -51 82 -160 257 -242 389 -81 132 -162 263 -180 290
-17 28 -49 79 -70 115 -21 36 -42 67 -45 70 -4 3 -9 10 -11 15 -6 15 -123 209
-129 215 -3 3 -28 41 -54 85 -27 44 -69 110 -93 147 -23 37 -43 70 -43 72 0 3
-13 25 -30 49 -16 25 -30 48 -30 51 0 4 -5 12 -10 19 -6 7 -16 20 -23 29 -12
17 -79 28 -119 20z"/>
<path d="M1866 1570 c-2 -8 -4 -365 -4 -792 l1 -778 463 0 464 0 0 118 c3 684
0 1456 -5 1461 -4 3 -211 6 -461 6 -395 0 -455 -2 -458 -15z"/>
</g>
</svg>
