<svg xmlns="http://www.w3.org/2000/svg" width="139.143" height="80.122" viewBox="0 0 139.143 80.122">
  <g id="Grupo_65" data-name="Grupo 65" transform="translate(0 0)">
    <rect id="Rectángulo_58" data-name="Rectángulo 58" width="8.224" height="14.014" transform="translate(12.336 43.326)" fill="#fff"/>
    <path id="Trazado_109" data-name="Trazado 109" d="M204.875-796.8v17.766q0,9.134-11.758,9.135-11.713,0-11.713-9.135V-796.8h8.937v18q0,3.491,1.162,4.771t4.3,1.28q6.071,0,6.071-6.283V-796.8Z" transform="translate(-126.629 827.798)" fill="#fff"/>
    <path id="Trazado_110" data-name="Trazado 110" d="M265.846-789.993l-4.153.659a7.5,7.5,0,0,0,.271-1.784q0-4.616-6.522-4.616-5.146,0-5.146,3.181,0,2.385,5.755,4.093,11.1,3.277,11.1,9.7a7.13,7.13,0,0,1-3.114,6.041,13.715,13.715,0,0,1-8.283,2.279q-11.442,0-11.442-7.622a12.818,12.818,0,0,1,.113-1.532l4.311-.815a10.594,10.594,0,0,0-.5,2.929q0,4.926,6.567,4.926,5.259,0,5.258-3.549,0-2.638-6.3-4.636-9.1-2.87-9.1-9.174a6.762,6.762,0,0,1,3.036-5.751,13.37,13.37,0,0,1,7.978-2.182Q265.846-797.848,265.846-789.993Z" transform="translate(-162.617 828.395)" fill="#fff"/>
    <path id="Trazado_111" data-name="Trazado 111" d="M308.119-796.8v26.474h-3V-796.8Z" transform="translate(-197.397 827.798)" fill="#fff"/>
    <path id="Trazado_112" data-name="Trazado 112" d="M340.336-781.531l3.814.854q.089,1.008.09,1.746a7.2,7.2,0,0,1-3.25,6.167q-3.25,2.309-8.712,2.308-13.7,0-13.7-13.246a13.624,13.624,0,0,1,3.995-10.192,14.243,14.243,0,0,1,10.4-3.908q10,0,10,8.263l-3.836,1.512q.067-1.164.068-1.8,0-5.857-5.462-5.857-5.777,0-5.778,12.432,0,10.687,6.455,10.687a5.928,5.928,0,0,0,4.435-1.823,6.278,6.278,0,0,0,1.772-4.558A16.689,16.689,0,0,0,340.336-781.531Z" transform="translate(-205.098 828.369)" fill="#fff"/>
    <g id="Grupo_38" data-name="Grupo 38" transform="translate(91.33 63.406)">
      <path id="Trazado_113" data-name="Trazado 113" d="M266.82-709.646a7.167,7.167,0,0,1,.056-.846,2.5,2.5,0,0,1,.25-.847,1.755,1.755,0,0,1,.569-.644,1.739,1.739,0,0,1,1.013-.262,2.25,2.25,0,0,1-.069.572q-.07.263-.166.525a4.537,4.537,0,0,0-.166.56,2.874,2.874,0,0,0-.069.656,5.041,5.041,0,0,0,.277,1.693,3.706,3.706,0,0,0,.846,1.371,3.974,3.974,0,0,0,1.415.918,5.464,5.464,0,0,0,2.011.334,4.924,4.924,0,0,0,1.221-.19q.722-.191,1.443-.453t1.332-.525q.61-.262.86-.381a2.414,2.414,0,0,0,.971-.8,4.129,4.129,0,0,0,.555-1.12,5.746,5.746,0,0,0,.25-1.24q.055-.632.055-1.133a6.977,6.977,0,0,0-.18-1.586q-.181-.775-.389-1.538t-.388-1.526a6.689,6.689,0,0,1-.181-1.55,3.855,3.855,0,0,1,.957-1.347,6.767,6.767,0,0,1,1.5-1.049,9.005,9.005,0,0,1,1.818-.7,9.059,9.059,0,0,1,1.886-.31,3.6,3.6,0,0,1,1.138.417,1.532,1.532,0,0,1,.541.537.689.689,0,0,1,.069.548,1.292,1.292,0,0,1-.277.477,1.562,1.562,0,0,0-.791-.763,2.208,2.208,0,0,0-1.082-.119,3.932,3.932,0,0,0-1.207.358,9.878,9.878,0,0,0-1.165.644,6.639,6.639,0,0,0-.971.751,4.375,4.375,0,0,0-.611.68,5.4,5.4,0,0,0,.181,1.4q.18.679.389,1.359t.388,1.36a5.407,5.407,0,0,1,.181,1.395,7.707,7.707,0,0,1-.624,3.136,6.767,6.767,0,0,1-1.8,2.432,8.272,8.272,0,0,1-2.858,1.562,12.061,12.061,0,0,1-3.76.548,5.617,5.617,0,0,1-2.317-.453,4.985,4.985,0,0,1-1.693-1.2,5.311,5.311,0,0,1-1.04-1.7A5.418,5.418,0,0,1,266.82-709.646Z" transform="translate(-266.82 721.068)" fill="#ce9535"/>
      <path id="Trazado_114" data-name="Trazado 114" d="M305.85-695.7c0-.063,0-.194.014-.393s.014-.33.014-.393a13.977,13.977,0,0,1,2.275-3.219,17.2,17.2,0,0,1,3.136-2.623.763.763,0,0,0,.18-.036.726.726,0,0,1,.18-.036,2.492,2.492,0,0,1,1.235.274,2.227,2.227,0,0,1,.777.716,2.776,2.776,0,0,1,.4.977,5.147,5.147,0,0,1,.111,1.037,4.4,4.4,0,0,1-.5,1.944,7.007,7.007,0,0,1-1.346,1.86,7.3,7.3,0,0,1-1.928,1.383,5,5,0,0,1-2.248.536,2.451,2.451,0,0,1-1.734-.536A1.95,1.95,0,0,1,305.85-695.7Zm2.164-.286a.354.354,0,0,0,.25.358,1.4,1.4,0,0,0,.5.1,3,3,0,0,0,1.346-.322,4.685,4.685,0,0,0,1.165-.811,4.027,4.027,0,0,0,.819-1.084,2.513,2.513,0,0,0,.305-1.145,4.583,4.583,0,0,0-.042-.584,1.6,1.6,0,0,0-.181-.572.958.958,0,0,0-.43-.393,1.344,1.344,0,0,0-.818-.048,1.785,1.785,0,0,0-.888.62,9.052,9.052,0,0,0-.957,1.276,9.986,9.986,0,0,0-.763,1.454A3.213,3.213,0,0,0,308.014-695.989Z" transform="translate(-289.146 710.391)" fill="#ce9535"/>
      <path id="Trazado_115" data-name="Trazado 115" d="M328.088-696.007a3.123,3.123,0,0,1,.25-1.014,12.954,12.954,0,0,1,.652-1.418q.4-.763.916-1.55a16.355,16.355,0,0,1,1.04-1.431,8.421,8.421,0,0,1,1-1.049,1.368,1.368,0,0,1,.832-.406q.777,0,.777.644a.855.855,0,0,1-.125.477,2.251,2.251,0,0,1-.291.358,4.266,4.266,0,0,1-.361.321,1.538,1.538,0,0,0-.333.37q-.25.358-.61.977t-.708,1.2q-.347.584-.6,1.037a3.047,3.047,0,0,0-.25.5v.31a5.421,5.421,0,0,0,2.081-.8,12.306,12.306,0,0,0,1.9-1.491q.9-.858,1.72-1.8t1.54-1.741a12.88,12.88,0,0,1,1.36-1.323,1.934,1.934,0,0,1,1.193-.525,3.118,3.118,0,0,1-.416,1.6q-.416.715-.9,1.407t-.9,1.418a3.229,3.229,0,0,0-.416,1.634q0,.382.541.68a6.018,6.018,0,0,0,1.249.5,13.7,13.7,0,0,0,1.373.322q.666.12.916.143v.62q-.639.024-1.582.012a11.624,11.624,0,0,1-1.887-.179,5.971,5.971,0,0,1-1.707-.56,1.954,1.954,0,0,1-1.013-1.157,9.535,9.535,0,0,0-1.387.954q-.666.549-1.373,1.025a8.985,8.985,0,0,1-1.485.811,4.231,4.231,0,0,1-1.693.334,1.213,1.213,0,0,1-.929-.405A1.206,1.206,0,0,1,328.088-696.007Z" transform="translate(-301.867 711.507)" fill="#ce9535"/>
      <path id="Trazado_116" data-name="Trazado 116" d="M358.819-704.889a4.762,4.762,0,0,1,.042-.513q.042-.345.1-.679t.111-.609a.988.988,0,0,1,.111-.345l5.05-8.68a3.491,3.491,0,0,1,.43-.537q.318-.345.694-.715t.749-.692q.375-.321.624-.513A.456.456,0,0,1,367-718a.69.69,0,0,1,.111.274,1.117,1.117,0,0,1,.014.3c-.009.1-.014.175-.014.239v.334c0,.143-.009.214-.028.214a10.226,10.226,0,0,1-.86,1.526q-.583.883-1.3,1.884t-1.485,2.086q-.763,1.085-1.387,2.146a16.117,16.117,0,0,0-1.027,2.039,4.745,4.745,0,0,0-.4,1.788.849.849,0,0,0,.291.679,3.994,3.994,0,0,0,.624.441q.333.191.624.382a.6.6,0,0,1,.291.525.343.343,0,0,1-.222.321,1.19,1.19,0,0,1-.527.108,3.632,3.632,0,0,1-2.026-.56A1.808,1.808,0,0,1,358.819-704.889Z" transform="translate(-319.446 719.411)" fill="#ce9535"/>
    </g>
    <g id="Grupo_39" data-name="Grupo 39" transform="translate(0 0)">
      <path id="Trazado_117" data-name="Trazado 117" d="M59.491-869.181a6.38,6.38,0,0,1-2.677.263,1.03,1.03,0,0,0-1.138.224,1.031,1.031,0,0,0-.66.954,6.4,6.4,0,0,1-1.312,2.348c-.609.9-.1,1.065.106,1.321,2.145,2.74,8.205,11.208,8.205,11.208.623-.208,1.275.457,1.275.457l2.134-1.4h0l2.133-1.4s-.348-.864.092-1.352c0,0-5.337-8.941-6.99-12C60.505-868.844,60.555-869.381,59.491-869.181Zm2.925,13.27a.7.7,0,0,1-.2.97.7.7,0,0,1-.97-.2l-4.811-7.349a.7.7,0,0,1,.2-.97.7.7,0,0,1,.97.2Zm3.453-2.261a.7.7,0,0,1-.2.971.7.7,0,0,1-.971-.2l-4.811-7.349a.7.7,0,0,1,.2-.97.7.7,0,0,1,.97.2Z" transform="translate(-53.416 869.225)" fill="#fff"/>
    </g>
    <g id="Grupo_47" data-name="Grupo 47" transform="translate(1.441 3.43)">
      <g id="Grupo_46" data-name="Grupo 46" transform="translate(0 0)">
        <g id="Grupo_40" data-name="Grupo 40" transform="translate(11.288 5.034)">
          <path id="Rectángulo_59" data-name="Rectángulo 59" d="M.879,0h0a.879.879,0,0,1,.879.879V.888a.879.879,0,0,1-.879.879h0A.879.879,0,0,1,0,.888V.879A.879.879,0,0,1,.879,0Z" transform="translate(0 0.963) rotate(-33.211)" fill="#ce9535"/>
        </g>
        <g id="Grupo_41" data-name="Grupo 41" transform="translate(7.923)">
          <path id="Rectángulo_60" data-name="Rectángulo 60" d="M.879,0h0a.879.879,0,0,1,.879.879v.01a.878.878,0,0,1-.878.878h0A.879.879,0,0,1,0,.889V.879A.879.879,0,0,1,.879,0Z" transform="translate(0 0.963) rotate(-33.211)" fill="#ce9535"/>
        </g>
        <g id="Grupo_42" data-name="Grupo 42" transform="translate(9.652 2.642)">
          <path id="Rectángulo_61" data-name="Rectángulo 61" d="M.879,0h0a.879.879,0,0,1,.879.879V.888a.879.879,0,0,1-.879.879h0A.879.879,0,0,1,0,.887V.879A.879.879,0,0,1,.879,0Z" transform="translate(0 0.963) rotate(-33.211)" fill="#ce9535"/>
        </g>
        <g id="Grupo_43" data-name="Grupo 43" transform="translate(0 5.187)">
          <rect id="Rectángulo_62" data-name="Rectángulo 62" width="1.758" height="1.768" rx="0.879" transform="translate(0 0.963) rotate(-33.211)" fill="#ce9535"/>
        </g>
        <g id="Grupo_44" data-name="Grupo 44" transform="translate(1.73 7.829)">
          <path id="Rectángulo_63" data-name="Rectángulo 63" d="M.878,0h0a.878.878,0,0,1,.878.878v.01a.879.879,0,0,1-.879.879h0A.879.879,0,0,1,0,.888V.878A.878.878,0,0,1,.878,0Z" transform="translate(0 0.963) rotate(-33.211)" fill="#ce9535"/>
        </g>
        <g id="Grupo_45" data-name="Grupo 45" transform="translate(3.316 10.253)">
          <path id="Rectángulo_64" data-name="Rectángulo 64" d="M.879,0h0a.879.879,0,0,1,.879.879v.01a.879.879,0,0,1-.879.879h0A.879.879,0,0,1,0,.887V.879A.879.879,0,0,1,.879,0Z" transform="translate(0 0.963) rotate(-33.211)" fill="#ce9535"/>
        </g>
      </g>
    </g>
    <g id="Grupo_48" data-name="Grupo 48" transform="translate(8.98 12.073)">
      <path id="Trazado_118" data-name="Trazado 118" d="M93.189-806.752l9.614,15.433,3.094,4.967.513-.733-2.952-4.664-9.722-15.362-2.7-4.26h-.729Z" transform="translate(-83.502 824.057)" fill="#fff"/>
      <path id="Trazado_119" data-name="Trazado 119" d="M97.27-807.709l9.9,15.244,2.707,4.168.506-.723-2.557-3.875L97.818-808.067l-2.179-3.3h-.747Z" transform="translate(-86.121 824.057)" fill="#fff"/>
      <path id="Trazado_120" data-name="Trazado 120" d="M95.22-807.23l9.758,15.338,2.9,4.564.51-.728-2.757-4.266-9.867-15.267-2.444-3.781h-.738Z" transform="translate(-84.803 824.057)" fill="#fff"/>
      <path id="Trazado_121" data-name="Trazado 121" d="M103.338-785.433l.472-.674-3.141-5.069-9.578-15.456-2.936-4.738H86.965Z" transform="translate(-81.587 824.057)" fill="#fff"/>
      <path id="Trazado_122" data-name="Trazado 122" d="M121.806-811.37,111.938-798.2,103.46-811.37h-1.483l1.538,2.227,10.335,14.96,2.089,3.023,6.183-8.823v21.193h8.224v-32.58Z" transform="translate(-90.174 824.057)" fill="#fff"/>
      <path id="Trazado_123" data-name="Trazado 123" d="M101.416-808.665l10.191,15.055,2.3,3.4.5-.711-2.142-3.116-10.3-14.984-1.613-2.346h-.766Z" transform="translate(-88.806 824.057)" fill="#fff"/>
      <path id="Trazado_124" data-name="Trazado 124" d="M99.335-808.187l10.046,15.15,2.506,3.779.5-.717-2.352-3.492L99.884-808.547l-1.9-2.824h-.757Z" transform="translate(-87.456 824.057)" fill="#fff"/>
      <path id="Trazado_125" data-name="Trazado 125" d="M74.4-836.529l4.716,7.776,1.853,2.991h.242l-1.93-3.1Z" transform="translate(-74.399 838.448)" fill="#fff"/>
      <path id="Trazado_126" data-name="Trazado 126" d="M75.769-837.426l4.788,7.729,2.165,3.422h.245L80.721-829.8Z" transform="translate(-75.183 838.961)" fill="#fff"/>
      <path id="Trazado_127" data-name="Trazado 127" d="M77.139-838.323,82-830.64l2.49,3.852h.248l-2.572-3.961Z" transform="translate(-75.966 839.474)" fill="#fff"/>
      <path id="Trazado_128" data-name="Trazado 128" d="M78.509-839.22l4.932,7.635,2.826,4.284h.252l-2.912-4.392Z" transform="translate(-76.75 839.987)" fill="#fff"/>
      <path id="Trazado_129" data-name="Trazado 129" d="M79.88-840.117l5,7.587,3.176,4.715h.253l-3.264-4.823Z" transform="translate(-77.534 840.5)" fill="#fff"/>
      <path id="Trazado_130" data-name="Trazado 130" d="M81.25-841.014l5.076,7.54,3.537,5.146h.257l-3.63-5.254Z" transform="translate(-78.318 841.014)" fill="#fff"/>
    </g>
    <g id="Grupo_49" data-name="Grupo 49" transform="translate(71.613 63.202)">
      <path id="Trazado_131" data-name="Trazado 131" d="M232.132-706.974a7.893,7.893,0,0,1-2.5,1.642,7.7,7.7,0,0,1-2.92.547,6.241,6.241,0,0,1-4.593-1.68,4.23,4.23,0,0,1-1.376-3.063,3.888,3.888,0,0,1,1.126-2.714,9.424,9.424,0,0,1,3.364-2.128,9.869,9.869,0,0,1-1.7-2.045,3.182,3.182,0,0,1-.424-1.515,3.189,3.189,0,0,1,1.331-2.537,5.154,5.154,0,0,1,3.351-1.078,4.788,4.788,0,0,1,3.158,1.017,3.075,3.075,0,0,1,1.229,2.443q0,2.311-3.563,3.947l3.384,3.7a8.392,8.392,0,0,0,.9-2.255l2.406.442a10.479,10.479,0,0,1-1.673,3.494,12.71,12.71,0,0,0,2.946,2.487l-1.556,1.581A12.933,12.933,0,0,1,232.132-706.974Zm-1.454-1.57-4.245-4.521a7.968,7.968,0,0,0-2.534,1.785,2.627,2.627,0,0,0-.656,1.631,3.2,3.2,0,0,0,.913,2.045,3.227,3.227,0,0,0,2.586,1.061,4.792,4.792,0,0,0,2.154-.559A4.984,4.984,0,0,0,230.678-708.544Zm-3.255-6.877a6.066,6.066,0,0,0,1.949-1.337,2.032,2.032,0,0,0,.443-1.271,1.7,1.7,0,0,0-.611-1.354,2.259,2.259,0,0,0-1.524-.526,2.358,2.358,0,0,0-1.563.52,1.6,1.6,0,0,0-.624,1.271,1.657,1.657,0,0,0,.226.791,4.128,4.128,0,0,0,.675.879Z" transform="translate(-220.747 721.545)" fill="#fff"/>
    </g>
  </g>
</svg>
