<svg xmlns="http://www.w3.org/2000/svg" width="35" height="54.303" viewBox="0 0 35 54.303" fill="white">
  <path d="M15.909,0H0V28.742H15.909ZM12.727,22.379H6.364V19.2h6.364Zm0-6.364H6.364V12.833h6.364Zm0-6.364H6.364V6.47h6.364Zm0,0" />
  <path d="M180,0V28.742h15.909V0Zm9.545,22.379h-6.364V19.2h6.364Zm0-6.364h-6.364V12.833h6.364Zm0-6.364h-6.364V6.47h6.364Zm0,0" transform="translate(-160.909)" />
  <path d="M30,304.182H42.727V320.2H30v3.182H58.636V320.2H45.909V304.182H58.636V301H30Zm0,0" transform="translate(-26.818 -269.076)" />
</svg>