<svg xmlns="http://www.w3.org/2000/svg" width="55.946" height="56.507" viewBox="0 0 55.946 56.507" fill="white">
  <g transform="translate(-2.54 0)">
    <g transform="translate(20.883 23.19)">
      <path d="M178.8,232.368a2.33,2.33,0,1,0,4.368-1.623l-1.769-4.76h-4.5v-1.818h5.256a1.212,1.212,0,1,0,0-2.424v-6.2a1.206,1.206,0,0,0,.548-.132,2.166,2.166,0,0,1,.64-1.32,1.212,1.212,0,0,0-1.188-.972H173.52l5.417-2.754a3.145,3.145,0,0,1-2.144-.237l-3.995,3.13a7.635,7.635,0,0,1,.267,2.286,5.923,5.923,0,0,1-2.2,4.516,5.54,5.54,0,0,1-2.124,1.023l1.7,3.086h4.034v9.11l-1.605,1.605.154,3.274,2.664-2.664,5.548,5.549a1.212,1.212,0,0,0,1.714-1.714l-6.051-6.053v-6.02Z" transform="translate(-168.744 -210.126)" />
    </g>
    <g transform="translate(50.236 29.942)">
      <path d="M435.3,271.341l-.6-.042v8.747l2.545-5.385A2.331,2.331,0,0,0,435.3,271.341Z" transform="translate(-434.703 -271.299)" />
    </g>
    <g transform="translate(36.113 29.124)">
      <path d="M308.1,265.537a2.142,2.142,0,0,1-1.37-.116v2.937a3.44,3.44,0,0,1,.506.537H314.8v-5.009Z" transform="translate(-306.734 -263.886)" />
    </g>
    <g transform="translate(25.886 0)">
      <path d="M229.64.367a.607.607,0,0,0-.8-.317l-9.514,4.1a1.941,1.941,0,0,0-2.422,1.222l-2.733,8.005a1.935,1.935,0,0,0-.027,1.165,3.16,3.16,0,0,1,1.121-.5,3.125,3.125,0,0,1,.872-1.067,3.157,3.157,0,0,1,1.939-.669,3.2,3.2,0,0,1,.547.049l1.956-5.729a1.936,1.936,0,0,0,.1-.641l8.7-4.851A.61.61,0,0,0,229.64.367Z" transform="translate(-214.069 0)" />
    </g>
    <g transform="translate(34.268 2.689)">
      <path d="M313.966,34.537a1.94,1.94,0,0,0-2-.925l-5.939-8.975a.607.607,0,0,0-1.044.616l4.936,9.417-4.512,2.66c-6.286.117-6.007.127-6.007.127l-8.013-.127a3.466,3.466,0,0,1-.239,1.955,3.157,3.157,0,0,1-.406,2.957,3.065,3.065,0,0,1-.672.677l-.049,3.119h.027a3.034,3.034,0,0,1,2.76,1.782l2.159-1.289a21.521,21.521,0,0,1,4.974-2.174,3.007,3.007,0,0,1,.412-1.281l.028-1.769,5.61-.1a1.941,1.941,0,0,0,.95-.269l6.343-3.74A1.941,1.941,0,0,0,313.966,34.537Z" transform="translate(-290.017 -24.366)" />
    </g>
    <g transform="translate(35.612 6.146)">
      <circle cx="4.024" cy="4.024" r="4.024" />
    </g>
    <g transform="translate(36.644 21.734)">
      <path d="M333.145,198.687a.326.326,0,0,0-.306-.295l-3.888-.213a19.7,19.7,0,0,0-5.629.5v-.546a1.212,1.212,0,1,0-2.424,0v1.142a19.963,19.963,0,0,0-5.848,2.33l-3.343,2a.326.326,0,0,0,.245.6l8.946-2.207v17.9l-7.686,7.685a1.212,1.212,0,1,0,1.714,1.714l5.972-5.971v1.488a1.212,1.212,0,0,0,2.424,0v-1.488l5.971,5.971a1.212,1.212,0,1,0,1.714-1.714l-7.685-7.685V201.4l9.578-2.363A.325.325,0,0,0,333.145,198.687Z" transform="translate(-311.547 -196.926)" />
    </g>
    <g transform="translate(7.637 40.453)">
      <path d="M48.717,366.536v13.523a2.531,2.531,0,0,0,5.062,0V367.988A9.19,9.19,0,0,1,48.717,366.536Z" transform="translate(-48.717 -366.536)" />
    </g>
    <g transform="translate(16.69 35.255)">
      <path d="M137.629,338.046l-.552-11.734a2.532,2.532,0,0,0-.31-1.1l-3.17-5.767a7.194,7.194,0,0,1-2.852,5.319l1.3,2.372.525,11.148a2.531,2.531,0,1,0,5.056-.238Z" transform="translate(-130.745 -319.445)" />
    </g>
    <g transform="translate(8.873 4.918)">
      <circle cx="4.371" cy="4.371" r="4.371" />
    </g>
    <g transform="translate(4.381 14.334)">
      <path d="M47.755,133.042a2.046,2.046,0,0,0,.22-.173,1.4,1.4,0,0,0,.224-1.953l-.006-.006a1.4,1.4,0,0,0-1.953-.238l-.008.006-.206.161-.414-.528,0-.005a1.122,1.122,0,0,0-1.568-.186h0a1.12,1.12,0,0,0-.191,1.573l.414.528-.353.276-.414-.528h0a1.12,1.12,0,0,0-1.763,1.383l.414.528-6.518,5.106-.007-.005c-2.575-2.187-5.885-1.807-6.977.77a3.08,3.08,0,0,1-1.234,1.426l2.4,1.826a1.827,1.827,0,1,1,1.024,3.229,4.134,4.134,0,0,1-3.422,3.6l.427.545a1.12,1.12,0,1,1-1.764,1.382l-2.457-3.136-4.284-3.025a8.61,8.61,0,0,0,2.826,7.632c2.3,2.126,5.836,3.091,8.287,1.171a5.223,5.223,0,0,0,1.913-3.807,3.077,3.077,0,0,1,2.578-2.8c2.656-.426,3.988-3.448,2.414-6.6l6.518-5.106.414.528h0a1.121,1.121,0,0,0,1.657.116h0a1.121,1.121,0,0,0,.1-1.5l-.414-.528.353-.276.414.528a1.12,1.12,0,1,0,1.764-1.382Z" transform="translate(-19.218 -129.881)" />
    </g>
    <g transform="translate(2.54 15.054)">
      <path d="M18.917,136.4H7.572a5,5,0,0,0-4.991,4.96c-.014,1.7-.027,3.353-.04,5.031v0a2.111,2.111,0,0,0,.892,1.767l7.245,5.116a2.109,2.109,0,0,0,2.433-3.446l-6.344-4.479c.026-3.285.015-1.922.032-3.963h0a.418.418,0,0,1,.837,0v2.1l2.581,1.822c.249.024.707.091.765.091a1.046,1.046,0,0,0,.964-.64,5.557,5.557,0,0,1,1.7-2.238,5.7,5.7,0,0,1,3.555-1.194,6.79,6.79,0,0,1,1.6.2v-.016a.434.434,0,0,1,.831-.177,1.163,1.163,0,0,1,.1.486,7.916,7.916,0,0,1,.978.458l2.885-2.261A5,5,0,0,0,18.917,136.4Z" transform="translate(-2.54 -136.401)" />
    </g>
  </g>
</svg>