<svg xmlns="http://www.w3.org/2000/svg" width="48.76" height="55.478" viewBox="0 0 48.76 55.478" fill="white">
  <path d="M369.752,6.61H366.5V0h-3.251V6.61H360v13h3.251V55.478H366.5V19.612h3.251Zm0,0" transform="translate(-320.992)" />
  <path d="M6.5,0H3.251V35.866H0v13H3.251v6.61H6.5v-6.61H9.752v-13H6.5Zm0,0" />
  <path d="M126.5,0h-3.251V16.362H120v13h3.251V55.478H126.5V29.364h3.251v-13H126.5Zm0,0" transform="translate(-106.997)" />
  <path d="M246.5,0h-3.251V26.114H240v13h3.251V55.478H246.5V39.116h3.251v-13H246.5Zm0,0" transform="translate(-213.995)" />
</svg>