<svg xmlns="http://www.w3.org/2000/svg" width="52.057" height="52.039" viewBox="0 0 52.057 52.039" fill="white">

  <g transform="translate(0 -0.005)">
    <path class="a" d="M12,34.6l5.435,5.435L6.158,51.308c-1.262,1.262-2.389.9-4.362-1.073C.3,48.734-.778,47.374.723,45.873ZM42.119,7.959a2.81,2.81,0,0,0,0,3.97,4.97,4.97,0,0,0,2.192,1.161l2.9-2.9a7.18,7.18,0,0,1,1.242,2.015l.966-.966a1,1,0,1,1,1.42,1.42l-22.1,22.1a1,1,0,0,1-1.42-1.42l.908-.908a7.316,7.316,0,0,1-1.979-1.211l-6.325,6.325-5.435-5.435L46.34.258c.721-.721,2.254.181,3.753,1.682s2.467,2.967,1.69,3.751L47.27,10.205a5.025,5.025,0,0,0-1.179-2.246A2.808,2.808,0,0,0,42.119,7.959ZM34.251,26.407A7.2,7.2,0,0,1,32.274,25.2l-3.09,3.092A5.022,5.022,0,0,0,28,26.039a2.808,2.808,0,1,0-3.972,3.97,4.958,4.958,0,0,0,2.2,1.163l2.9-2.9a7.18,7.18,0,0,1,1.242,2.015Zm6.027-6.027A7.283,7.283,0,0,1,38.3,19.17l-3.09,3.09a5.025,5.025,0,0,0-1.179-2.246,2.808,2.808,0,0,0-3.972,3.97,4.971,4.971,0,0,0,2.194,1.163l2.9-2.9a7.18,7.18,0,0,1,1.242,2.015Zm.962-4.147a5.025,5.025,0,0,0-1.179-2.246,2.808,2.808,0,0,0-3.972,3.97,5,5,0,0,0,2.192,1.163l2.9-2.9a7.18,7.18,0,0,1,1.242,2.015L46.3,14.354a7.219,7.219,0,0,1-1.975-1.209Z" transform="translate(0 0)" />
  </g>
</svg>