<svg xmlns="http://www.w3.org/2000/svg" width="54.881" height="54.878" viewBox="0 0 54.881 54.878" fill="white"><path d="M54.38,5.364,49.53.514a1.716,1.716,0,0,0-2.425,0l-4.85,4.85a1.716,1.716,0,0,0,0,2.425L32.04,18a1.874,1.874,0,0,0-.271-.223c-5.1-3.293-10.729-3.3-14-.024a8.653,8.653,0,0,0-2.452,6.383c-4.613-.947-8.935.137-11.889,3.09A12.1,12.1,0,0,0,0,35.926a18.872,18.872,0,0,0,5.852,13.11,18.88,18.88,0,0,0,13.11,5.855h0a12.1,12.1,0,0,0,8.692-3.416C30.613,48.517,31.7,44.2,30.75,39.582a8.546,8.546,0,0,0,6.37-2.449c3.283-3.283,3.279-8.911-.01-14.008a1.421,1.421,0,0,0-.223-.274L47.1,12.639a1.716,1.716,0,0,0,2.425,0l4.85-4.85A1.71,1.71,0,0,0,54.38,5.364ZM14.934,45.814a1.722,1.722,0,0,1-2.428,0l-3.43-3.43A1.715,1.715,0,0,1,11.5,39.959l3.43,3.43A1.713,1.713,0,0,1,14.934,45.814Zm5.646-6.359a5.145,5.145,0,1,1,5.145-5.145A5.151,5.151,0,0,1,20.58,39.455Z" transform="translate(0 -0.012)"/></svg>