<svg xmlns="http://www.w3.org/2000/svg" width="69.701" height="81.312" viewBox="0 0 69.701 81.312">
  <g id="Grupo_118" data-name="Grupo 118" transform="translate(-663.176 1015.859)">
    <rect id="Rectángulo_72" data-name="Rectángulo 72" width="11.662" height="19.873" transform="translate(680.669 -954.42)" fill="#ce9535"/>
    <g id="Grupo_55" data-name="Grupo 55" transform="translate(663.176 -1015.859)">
      <path id="Trazado_146" data-name="Trazado 146" d="M671.791-1015.8c-1.509.283-2.751.674-3.8.373a1.461,1.461,0,0,0-1.613.317,1.461,1.461,0,0,0-.936,1.352c-.142,1.078-1,2.06-1.861,3.329s-.136,1.51.15,1.874c3.042,3.886,11.636,15.893,11.636,15.893.883-.294,1.808.648,1.808.648l3.026-1.981h0l3.024-1.98s-.492-1.225.131-1.918c0,0-7.568-12.679-9.912-17.021C673.23-1015.319,673.3-1016.081,671.791-1015.8Zm4.148,18.817a.994.994,0,0,1-.287,1.376.994.994,0,0,1-1.376-.288l-6.823-10.421a.993.993,0,0,1,.287-1.376.993.993,0,0,1,1.376.287Zm4.9-3.206a.994.994,0,0,1-.287,1.376.994.994,0,0,1-1.376-.287l-6.823-10.422a.993.993,0,0,1,.287-1.376.993.993,0,0,1,1.376.287Z" transform="translate(-663.176 1015.859)" fill="#ce9535"/>
    </g>
    <g id="Grupo_56" data-name="Grupo 56" transform="translate(665.219 -1010.995)">
      <path id="Rectángulo_73" data-name="Rectángulo 73" d="M1.246,0h0A1.248,1.248,0,0,1,2.493,1.248v.011A1.246,1.246,0,0,1,1.247,2.505h0A1.247,1.247,0,0,1,0,1.259V1.246A1.246,1.246,0,0,1,1.246,0Z" transform="translate(16.007 8.504) rotate(-33.211)" fill="#fff"/>
      <path id="Rectángulo_74" data-name="Rectángulo 74" d="M1.247,0h0A1.246,1.246,0,0,1,2.493,1.246V1.26A1.247,1.247,0,0,1,1.247,2.507h0A1.247,1.247,0,0,1,0,1.26V1.247A1.247,1.247,0,0,1,1.247,0Z" transform="translate(11.235 1.366) rotate(-33.211)" fill="#fff"/>
      <path id="Rectángulo_75" data-name="Rectángulo 75" d="M1.247,0h0A1.246,1.246,0,0,1,2.493,1.246v.012A1.247,1.247,0,0,1,1.247,2.505h0A1.247,1.247,0,0,1,0,1.259V1.247A1.247,1.247,0,0,1,1.247,0Z" transform="translate(13.687 5.112) rotate(-33.211)" fill="#fff"/>
      <path id="Rectángulo_76" data-name="Rectángulo 76" d="M1.246,0h0A1.245,1.245,0,0,1,2.493,1.245v.015A1.246,1.246,0,0,1,1.246,2.507h0A1.246,1.246,0,0,1,0,1.261V1.246A1.246,1.246,0,0,1,1.246,0Z" transform="translate(0 8.72) rotate(-33.211)" fill="#fff"/>
      <rect id="Rectángulo_77" data-name="Rectángulo 77" width="2.493" height="2.505" rx="1.246" transform="translate(2.453 12.467) rotate(-33.211)" fill="#fff"/>
      <rect id="Rectángulo_78" data-name="Rectángulo 78" width="2.493" height="2.505" rx="1.246" transform="translate(4.703 15.904) rotate(-33.211)" fill="#fff"/>
    </g>
    <g id="Grupo_57" data-name="Grupo 57" transform="translate(675.91 -998.738)">
      <path id="Trazado_147" data-name="Trazado 147" d="M709.081-943.727l13.633,21.885L727.1-914.8l.728-1.039-4.185-6.614-13.786-21.784-3.823-6.041H705Z" transform="translate(-695.344 968.266)" fill="#ce9535"/>
      <path id="Trazado_148" data-name="Trazado 148" d="M713.566-945.084l14.042,21.617,3.839,5.91.718-1.025-3.626-5.5-14.2-21.516-3.09-4.684h-1.059Z" transform="translate(-697.756 968.266)" fill="#ce9535"/>
      <path id="Trazado_149" data-name="Trazado 149" d="M711.315-944.4l13.838,21.75,4.117,6.471.723-1.032-3.909-6.049-13.992-21.65-3.466-5.362H707.58Z" transform="translate(-696.542 968.266)" fill="#ce9535"/>
      <path id="Trazado_150" data-name="Trazado 150" d="M724.425-913.5l.67-.955-4.454-7.189-13.582-21.918-4.163-6.719h-1.689Z" transform="translate(-693.581 968.266)" fill="#ce9535"/>
      <path id="Trazado_151" data-name="Trazado 151" d="M746.344-950.276,732.35-931.6l-12.023-18.68h-2.1l2.181,3.158L735.062-925.9l2.962,4.287,8.768-12.512v30.053h11.662v-46.2Z" transform="translate(-701.488 968.266)" fill="#ce9535"/>
      <path id="Trazado_152" data-name="Trazado 152" d="M718.11-946.44l14.452,21.348,3.261,4.818.707-1.008-3.037-4.419-14.606-21.248-2.287-3.327h-1.087Z" transform="translate(-700.228 968.266)" fill="#ce9535"/>
      <path id="Trazado_153" data-name="Trazado 153" d="M715.831-945.762l14.246,21.484,3.554,5.359.713-1.017-3.335-4.952-14.4-21.383-2.7-4h-1.074Z" transform="translate(-698.985 968.266)" fill="#ce9535"/>
      <path id="Trazado_154" data-name="Trazado 154" d="M686.962-978.8l6.688,11.027,2.628,4.241h.343l-2.737-4.394Z" transform="translate(-686.962 981.517)" fill="#ce9535"/>
      <path id="Trazado_155" data-name="Trazado 155" d="M688.516-979.812l6.789,10.961,3.07,4.852h.347l-3.183-5Z" transform="translate(-687.684 981.99)" fill="#ce9535"/>
      <path id="Trazado_156" data-name="Trazado 156" d="M690.069-980.829l6.891,10.894,3.53,5.463h.352l-3.648-5.617Z" transform="translate(-688.406 982.462)" fill="#ce9535"/>
      <path id="Trazado_157" data-name="Trazado 157" d="M691.622-981.846l6.994,10.827,4.007,6.074h.357l-4.13-6.228Z" transform="translate(-689.128 982.934)" fill="#ce9535"/>
      <path id="Trazado_158" data-name="Trazado 158" d="M693.175-982.862l7.1,10.759,4.5,6.686h.359l-4.629-6.839Z" transform="translate(-689.849 983.407)" fill="#ce9535"/>
      <path id="Trazado_159" data-name="Trazado 159" d="M694.729-983.879l7.2,10.693,5.016,7.3h.365l-5.147-7.45Z" transform="translate(-690.571 983.879)" fill="#ce9535"/>
    </g>
  </g>
</svg>
