<svg xmlns="http://www.w3.org/2000/svg" width="54.361" height="45.301" viewBox="0 0 54.361 45.301" fill="white">
  <g transform="translate(0 -42.667)">
    <g transform="translate(30.805 72.566)">
      <circle cx="1.812" cy="1.812" r="1.812" />
    </g>
    <g transform="translate(42.583 77.096)">
      <circle cx="1.812" cy="1.812" r="1.812" />
    </g>
    <g transform="translate(10.872 67.129)">
      <circle cx="1.812" cy="1.812" r="1.812" />
    </g>
    <g transform="translate(21.745 63.505)">
      <circle cx="1.812" cy="1.812" r="1.812" />
    </g>
    <g transform="translate(0 42.667)">
      <path d="M29.9,57.163H54.361V43.573a.906.906,0,0,0-.906-.906H.906A.906.906,0,0,0,0,43.573v13.59H11.778a.906.906,0,1,1,0,1.812H0V71.66H8.154a.906.906,0,0,1,0,1.812H0v13.59a.906.906,0,0,0,.906.906H53.455a.906.906,0,0,0,.906-.906V73.472H48.019v5.436A3.624,3.624,0,1,1,44.4,75.284a3.587,3.587,0,0,1,1.812.5V73.472H40.771a.906.906,0,1,1,0-1.812h5.436V65.318a.906.906,0,1,1,1.812,0V71.66h6.342V58.975H29.9a.906.906,0,0,1,0-1.812Zm-10.872,0h3.624a.906.906,0,1,1,0,1.812H19.026a.906.906,0,1,1,0-1.812ZM16.308,68.942a3.624,3.624,0,1,1-3.624-3.624,3.587,3.587,0,0,1,1.812.5V55.351a.906.906,0,0,1,1.812,0v13.59Zm9.966,4.53H18.12a.906.906,0,1,1,0-1.812h8.154a.906.906,0,1,1,0,1.812Zm.906-8.154a3.624,3.624,0,1,1-3.624-3.624,3.587,3.587,0,0,1,1.812.5V51.727a.906.906,0,1,1,1.812,0v13.59Zm5.436,5.436a3.587,3.587,0,0,1,1.812.5V60.787a.906.906,0,0,1,1.812,0v13.59a3.624,3.624,0,1,1-3.624-3.624Z" transform="translate(0 -42.667)" />
    </g>
  </g>
</svg>