<svg xmlns="http://www.w3.org/2000/svg" width="50.126" height="60.274" viewBox="0 0 37.126 60.274" fill="white">
  <g transform="translate(-57.191)">
    <g transform="translate(57.191)">
      <path d="M94.281,144.9a.832.832,0,0,0-1.04-.553l-1.835.559L58.359,130.4a.833.833,0,1,0-.67,1.525l33.33,14.628a.845.845,0,0,0,.335.069.831.831,0,0,0,.242-.036l2.129-.648A.832.832,0,0,0,94.281,144.9Z" transform="translate(-57.191 -103.958)" />
      <path d="M142.809,186.563h.916v1.851h-5.051v-1.851h1.252l.3-3.889-4.626-2.03a2.978,2.978,0,0,1-2.309,1.107c-.084,0-.161-.018-.244-.023-.374,6.1.2,12.128,5.614,13.625l1.222,9.008h1.92l1.41-8.68h.09c5.2-.349,7.056-3.88,7.542-8.346l-7.922-3.477Z" transform="translate(-117.624 -144.087)" />
      <path d="M138.292,32.986l4.738,2.081.495-6.391h.015l1.592-20.6h.559l-1.272,16.433H144.4l-.838,10.842,1.493.654.485-11.5h-.016l.695-16.43h.557L145.9,28.967l.017,0-.3,7.227,7.9,3.469c-.014-.678-.042-1.362-.085-2.048a2.932,2.932,0,0,1-.464.046,3,3,0,0,1-.09-5.99c-.7-5.551-4.175-6.823-6.1-7.1l.737-16.5h.477a.8.8,0,1,0,0-.556h-.453l.066-1.493h.594a.8.8,0,1,0,0-.556h-.568l.031-.73a2.482,2.482,0,1,0-2.7-.48l-.147,1.21h-.646a.8.8,0,1,0,0,.556h.58l-.18,1.493h-.607a.8.8,0,1,0,0,.556h.541l-1.985,16.46c-1.846.192-5.653,1.3-6.384,7.158A3,3,0,0,1,138.292,32.986ZM146.8,7.524h-.558l.065-1.493h.555Zm.108-2.594-.022.545h-.557l.023-.553a2.235,2.235,0,0,0,.31.031A2.05,2.05,0,0,0,146.912,4.93ZM145.4,4.6a2.433,2.433,0,0,0,.539.238l-.049.642h-.558Zm.446,1.435-.114,1.494h-.558l.115-1.494Z" transform="translate(-120.155)" />
      <path d="M170.428,192.1l-.278,3.6h1.77l.122-2.892Z" transform="translate(-147.29 -153.223)" />
    </g>
  </g>
</svg>