<svg xmlns="http://www.w3.org/2000/svg" width="51.916" height="49.761" viewBox="0 0 51.916 49.761" fill="white">
  <g transform="translate(0 -6.233)">
    <path d="M35.932,31.134c-3.456-1.382-6.523-7.451-8.156-11.677C24.544,11.088,21.4,6.023,12.3,6.239.684,6.513,0,17.311,0,17.311V53.28a2.715,2.715,0,0,0,2.714,2.714H48.136a3.354,3.354,0,0,0,3.217-2.666c.949-6.045,2.026-20.307-8.843-20.851A20.365,20.365,0,0,1,35.932,31.134ZM48.386,53.4H2.187V43.282H4.852V50.7H7.722V43.282h2.357V50.7H12.95V43.282h2.357V50.7h2.87V43.282h2.358V50.7H23.4V43.282h2.359V50.7h2.87V43.282H30.99V50.7h2.87V43.282h2.358V50.7h2.868V43.282h2.358V50.7h2.871V43.282h4.066V53.4Z" transform="translate(0 0)" />
  </g>
</svg>