<svg xmlns="http://www.w3.org/2000/svg" width="37.944" height="59.569" viewBox="0 0 37.944 59.569" fill="white">
  <g transform="translate(-92.934)">
    <path d="M247.825,1.78A1.78,1.78,0,0,0,246.045,0H227.818l20.007,4.142Z" transform="translate(-119.191)" />
    <path d="M129.459,14.157,95.075,7.038a1.78,1.78,0,0,0-2.141,1.743V56.855A1.78,1.78,0,0,0,94.353,58.6l34.384,7.119a1.78,1.78,0,0,0,2.141-1.743V15.9a1.78,1.78,0,0,0-1.419-1.743ZM113.744,48.349v.61a6.435,6.435,0,0,1-6.523,6.777,6.571,6.571,0,0,1-4.5-1.729,6.64,6.64,0,0,1-2.065-5.048,1.791,1.791,0,0,1,3.582,0,2.97,2.97,0,1,0,5.923,0v-.6a9.9,9.9,0,0,1-5.523-2.442A9.018,9.018,0,0,1,101.818,40a10.332,10.332,0,0,1,1.77-6.7,9.386,9.386,0,0,1,6.219-3.974q.18-.031.356-.064V18.018a1.791,1.791,0,0,1,2.745-1.516c4.585,2.885,6.824,6.5,6.142,9.914-.488,2.444-2.368,4.372-5.305,5.533v2.018a8.91,8.91,0,0,1,.916.093c3.738.577,6.25,3.282,6.25,6.73C120.911,44.11,118.654,47.656,113.744,48.349Z" transform="translate(0 -6.186)" />
    <path d="M273.6,137.233c.243-1.216-.407-2.632-1.792-4.033v6.283A3.611,3.611,0,0,0,273.6,137.233Z" transform="translate(-158.059 -117.703)" />
    <path d="M199.769,236.434a5.441,5.441,0,0,0,4.775,5.041v-5.829a2.573,2.573,0,0,0-.377.737,1.791,1.791,0,1,1-3.415-1.08,6.377,6.377,0,0,1,3.437-3.858q.175-.082.356-.156V229.64A6.242,6.242,0,0,0,199.769,236.434Z" transform="translate(-94.382 -202.923)" />
    <path d="M272.174,269.668q-.189-.029-.37-.046v7.141c1.9-.426,3.584-1.6,3.584-3.9,0-2.564-2.678-3.107-3.214-3.19Z" transform="translate(-158.059 -238.253)" />
  </g>
</svg>